/vscmnt/brussel_pixiu_data/_data_brussel/112/vsc11236/PredSimResults/SUBJ04opt3D/worker_04.mot
version=1
nRows=10
nColumns=50
inDegrees=yes
endheader
                time	         pelvis_tilt	         pelvis_list	     pelvis_rotation	           pelvis_tx	           pelvis_ty	           pelvis_tz	       hip_flexion_r	     hip_adduction_r	      hip_rotation_r	        knee_angle_r	       ankle_angle_r	         mtp_angle_r	       hip_flexion_l	     hip_adduction_l	      hip_rotation_l	        knee_angle_l	       ankle_angle_l	         mtp_angle_l	    lumbar_extension	      lumbar_bending	     lumbar_rotation	 ercspn_r/activation	 intobl_r/activation	 extobl_r/activation	    abd_r/activation	    add_r/activation	hamstrings_r/activation	bifemsh_r/activation	glut_max_r/activation	iliopsoas_r/activation	rect_fem_r/activation	  vasti_r/activation	gastroc_r/activation	 soleus_r/activation	tib_ant_r/activation	 ercspn_l/activation	 intobl_l/activation	 extobl_l/activation	    abd_l/activation	    add_l/activation	hamstrings_l/activation	bifemsh_l/activation	glut_max_l/activation	iliopsoas_l/activation	rect_fem_l/activation	  vasti_l/activation	gastroc_l/activation	 soleus_l/activation	tib_ant_l/activation	
          2.00054471	         -1.97685451	         -0.56458424	         -8.80205545	          1.80049024	          0.88362922	          0.01223622	        -11.98139345	         -0.30547289	         -8.09709042	         -7.74484274	         13.01400547	         19.73590848	         29.06873858	         -3.76481687	        -10.64680264	        -11.54935448	          3.94347012	          0.23012222	        -13.96546984	          3.88166625	          7.49643883	          0.01830780	          0.01000004	          0.01000005	          0.06307548	          0.01000079	          0.02849962	          0.18560136	          0.01768985	          0.01825498	          0.01000281	          0.01000018	          0.23895969	          0.24102295	          0.01000008	          0.03907352	          0.22268625	          0.02072962	          0.01222254	          0.25037407	          0.06340933	          0.01105045	          0.01490619	          0.17212030	          0.03882549	          0.03725727	          0.01000013	          0.01000005	          0.32665761	
          2.01388168	         -2.08425283	         -0.57722801	         -8.57888460	          1.81563629	          0.88143684	          0.01177234	        -12.67023112	         -0.40101524	         -8.75953321	         -8.18776906	         12.72289825	         21.13598962	         28.90418776	         -3.62311233	        -10.88969934	        -12.67996550	          3.75533482	          0.22516785	        -13.48461125	          3.33087904	          7.59875418	          0.02997354	          0.01000008	          0.01000016	          0.05160467	          0.01000224	          0.02334612	          0.15184827	          0.01452825	          0.01493531	          0.01000022	          0.01000061	          0.21835641	          0.24000643	          0.01000002	          0.03196774	          0.22201272	          0.01695977	          0.01000003	          0.25929601	          0.06603583	          0.01931355	          0.03281185	          0.14081874	          0.03176476	          0.03048186	          0.01825869	          0.01901060	          0.32899483	
          2.02721864	         -2.17712598	         -0.53113252	         -8.31217941	          1.83117102	          0.87939226	          0.01125112	        -13.31288427	         -0.56525239	         -9.45239503	         -8.78055910	         12.36161285	         22.56398357	         28.63630585	         -3.47343936	        -11.02751855	        -13.77770483	          3.43699174	          0.22245551	        -12.96738709	          2.69028367	          7.67590902	          0.03227556	          0.01000002	          0.01000009	          0.04221993	          0.01000043	          0.01910141	          0.12423344	          0.01188620	          0.01222356	          0.01000063	          0.01000019	          0.17864649	          0.22839572	          0.01000003	          0.02615455	          0.20914317	          0.01387550	          0.03111209	          0.22080222	          0.06508956	          0.01580334	          0.02684504	          0.11520964	          0.02598809	          0.05284446	          0.01493824	          0.01555338	          0.35752638	
          2.04055561	         -2.25610996	         -0.44671283	         -7.99038665	          1.84689833	          0.87768172	          0.01061998	        -13.84061018	         -0.78497680	        -10.18338855	         -9.62469627	         11.89116744	         24.02033130	         28.34436626	         -3.30218613	        -11.24647739	        -14.81497545	          3.00309708	          0.20434081	        -12.44506754	          1.98859265	          7.72068690	          0.04329189	          0.01000002	          0.01000008	          0.03454188	          0.01000053	          0.01563010	          0.10164058	          0.01000020	          0.01000261	          0.01000060	          0.01000047	          0.14615810	          0.21437928	          0.01000002	          0.02838017	          0.17110869	          0.01135215	          0.04700714	          0.21421674	          0.06702156	          0.01293089	          0.02196325	          0.09425778	          0.02126195	          0.11879467	          0.01222169	          0.01272489	          0.38398355	
          2.05389257	         -2.32155744	         -0.32430890	         -7.62286732	          1.86270785	          0.87648524	          0.00986942	        -14.18857382	         -1.07508717	        -10.94362647	        -10.81439375	         11.26321472	         25.52318753	         27.99923709	         -3.09982840	        -11.56409420	        -15.79413885	          2.69553358	          0.18266157	        -11.93275046	          1.23224401	          7.73219018	          0.05780907	          0.01000002	          0.01000007	          0.02826014	          0.01000047	          0.01279657	          0.08315641	          0.01000026	          0.01000116	          0.01000060	          0.01000061	          0.11957799	          0.18396920	          0.01000002	          0.03282734	          0.13999110	          0.01000008	          0.07556458	          0.18585501	          0.06711218	          0.01058204	          0.01797977	          0.07711619	          0.01739531	          0.17522061	          0.01000033	          0.01041082	          0.39519584	
          2.06722954	         -2.37451336	         -0.16577643	         -7.22249860	          1.87846332	          0.87598828	          0.00899557	        -14.28498446	         -1.45311014	        -11.72448004	        -12.44969554	         10.43005309	         27.07140894	         27.57158105	         -2.84842531	        -11.91169145	        -16.66935168	          2.59865230	          0.16083346	        -11.44628109	          0.43020041	          7.71150247	          0.09021303	          0.01000004	          0.01000006	          0.02312080	          0.01000081	          0.03375422	          0.06803375	          0.01000047	          0.01000078	          0.01000029	          0.02374751	          0.09783170	          0.15051283	          0.01000002	          0.03324750	          0.11453251	          0.01000013	          0.09647438	          0.16352840	          0.06775006	          0.01000218	          0.04081392	          0.06309195	          0.01423186	          0.20582098	          0.01000094	          0.01000061	          0.39210264	
          2.08056650	         -2.41559523	          0.02383141	         -6.80305749	          1.89405254	          0.87630125	          0.00800393	        -14.09775046	         -1.92952383	        -12.51772523	        -14.55815622	          9.33811892	         28.63604352	         27.05816157	         -2.53674296	        -12.20945783	        -17.42282189	          2.70340915	          0.14776353	        -10.99671627	         -0.40506560	          7.66390198	          0.10580342	          0.01000007	          0.01000006	          0.01891609	          0.01000142	          0.06083720	          0.05566127	          0.01826708	          0.01000046	          0.01000018	          0.02241410	          0.08004016	          0.12314077	          0.01000002	          0.03343659	          0.09370379	          0.01000018	          0.11084495	          0.15356535	          0.07012667	          0.01001012	          0.03457726	          0.05161814	          0.01164373	          0.21653517	          0.01000024	          0.01000011	          0.37295244	
          2.09390347	         -2.44470011	          0.22532949	         -6.37596166	          1.90940541	          0.87739910	          0.00690828	        -13.60126695	         -2.50034809	        -13.32522002	        -17.17329040	          7.97109662	         30.14643736	         26.45370749	         -2.17249979	        -12.39617398	        -18.03255698	          2.97568512	          0.15926670	        -10.59168846	         -1.24766759	          7.59450814	          0.09601628	          0.01000050	          0.01000007	          0.01547604	          0.10530555	          0.09090314	          0.04553883	          0.01580496	          0.01000026	          0.01000013	          0.01833797	          0.06548417	          0.10074656	          0.01000002	          0.03051605	          0.07666294	          0.01000046	          0.11722685	          0.16467825	          0.07377262	          0.01000408	          0.03114645	          0.04223094	          0.01000014	          0.22512536	          0.01000116	          0.01000113	          0.34016668	
          2.10724043	         -2.46217305	          0.40939125	         -5.94930076	          1.92445529	          0.87919104	          0.00573129	        -12.76404147	         -3.15399566	        -14.13709449	        -20.33530305	          6.32192013	         31.47963753	         25.73420630	         -1.77851212	        -12.44890101	        -18.43445793	          3.32223471	          0.23022775	        -10.24034233	         -2.06302775	          7.50373392	          0.09295159	          0.02959819	          0.01000007	          0.01266159	          0.10660704	          0.09642656	          0.03725728	          0.01293074	          0.01000027	          0.01000008	          0.01500307	          0.05357531	          0.08242493	          0.01000004	          0.02727974	          0.06272113	          0.01000065	          0.11903352	          0.15861850	          0.07969073	          0.01000460	          0.02548562	          0.03455089	          0.01000015	          0.22122234	          0.01000064	          0.01000035	          0.31053190	
          2.12057740	         -2.46767151	          0.54140731	         -5.52812564	          1.93914776	          0.88152892	          0.00448318	        -11.56943583	         -3.87609448	        -14.94650324	        -24.07497292	          4.51535500	         32.24679199	         24.89174929	         -1.39951142	        -12.40392962	        -18.59874042	          3.64061305	          0.36264773	         -9.95139340	         -2.80693446	          7.38560665	          0.08315775	          0.03860497	          0.01000008	          0.01035898	          0.15549833	          0.07889518	          0.03048185	          0.01057922	          0.01000026	          0.01000006	          0.01227464	          0.04383218	          0.06743524	          0.02763583	          0.02231887	          0.05131475	          0.01000066	          0.11886175	          0.16715588	          0.08469977	          0.01000254	          0.02883852	          0.02826752	          0.01000013	          0.21203418	          0.01000031	          0.01000018	          0.28418635	
